<?xml version="1.0" standalone="no"?><!DOCTYPE svg PUBLIC "-//W3C//DTD SVG 1.1//EN" "http://www.w3.org/Graphics/SVG/1.1/DTD/svg11.dtd"><svg t="1757492971895" class="icon" viewBox="0 0 1024 1024" version="1.1" xmlns="http://www.w3.org/2000/svg" p-id="35963" xmlns:xlink="http://www.w3.org/1999/xlink" width="64" height="64"><path d="M667.648 224.768h-32.256V119.296c0-2.048-5.12-6.144-12.8-6.144l-122.368 0.512-65.024-1.536-31.232 0.512c-8.192 0-12.8 4.096-12.8 6.144v105.472h-32.256V119.296c0-20.992 19.968-38.4 45.056-38.4l31.744-0.512 65.536 1.024 122.368-0.512c24.576 0 45.056 17.408 45.056 38.4v105.472z" fill="#141414" p-id="35964"></path><path d="M668.16 941.568l-129.536-1.536-242.688 1.024c-44.032 0-78.848-27.648-78.848-62.464V241.152c0-11.776 9.728-21.504 21.504-21.504 11.776 0 21.504 9.728 21.504 21.504v636.928c0 9.216 15.36 19.968 35.84 19.968l242.688-1.024 129.536 1.536 62.464-0.512c20.48 0 35.84-10.752 35.84-19.968V241.152c0-11.776 9.728-21.504 21.504-21.504s21.504 9.728 21.504 21.504v636.928c0 35.328-34.304 62.464-78.848 62.464l-62.464 1.024z" fill="#141414" p-id="35965"></path><path d="M940.032 240.64H86.528c-11.776 0-21.504-9.728-21.504-21.504 0-11.776 9.728-21.504 21.504-21.504h854.016c11.776 0 21.504 9.728 21.504 21.504-0.512 12.288-10.24 21.504-22.016 21.504zM360.96 770.56c-8.704 0-15.872-7.168-15.872-15.872v-348.16c0-8.704 7.168-15.872 15.872-15.872 8.704 0 15.872 7.168 15.872 15.872v348.16c0 8.704-7.168 15.872-15.872 15.872zM513.024 770.56c-8.704 0-15.872-7.168-15.872-15.872v-348.16c0-8.704 7.168-15.872 15.872-15.872s15.872 7.168 15.872 15.872v348.16c0.512 8.704-6.656 15.872-15.872 15.872zM665.6 770.56c-8.704 0-15.872-7.168-15.872-15.872v-348.16c0-8.704 7.168-15.872 15.872-15.872s15.872 7.168 15.872 15.872v348.16c0 8.704-7.168 15.872-15.872 15.872z" fill="#141414" p-id="35966"></path></svg>