<?xml version="1.0" standalone="no"?><!DOCTYPE svg PUBLIC "-//W3C//DTD SVG 1.1//EN" "http://www.w3.org/Graphics/SVG/1.1/DTD/svg11.dtd"><svg t="1757481439535" class="icon" viewBox="0 0 1024 1024" version="1.1" xmlns="http://www.w3.org/2000/svg" p-id="23494" width="64" height="64" xmlns:xlink="http://www.w3.org/1999/xlink"><path d="M292.693333 839.992889h438.613334l24.177777-512H268.515556l24.177777 512z" fill="#ffffff" p-id="23495"></path><path d="M864 256h-128V175.985778a64.056889 64.056889 0 0 0-64-64h-320a64.056889 64.056889 0 0 0-64 64V256h-128C142.307556 256 128 270.307556 128 288v32c0 4.408889 3.612444 7.992889 7.992889 7.992889h60.416l24.689778 523.008a64.056889 64.056889 0 0 0 63.914666 61.013333h453.973334c34.218667 0 62.293333-26.823111 63.914666-61.013333l24.689778-523.008h60.416a8.021333 8.021333 0 0 0 7.992889-7.992889v-32C896 270.307556 881.692444 256 864 256zM359.992889 184.007111h304.014222V256H359.992889V184.007111zM731.306667 839.964444H292.693333l-24.177777-512h486.968888l-24.177777 512z" fill="#ffffff" p-id="23496"></path></svg>