<?xml version="1.0" standalone="no"?><!DOCTYPE svg PUBLIC "-//W3C//DTD SVG 1.1//EN" "http://www.w3.org/Graphics/SVG/1.1/DTD/svg11.dtd"><svg t="1759060843041" class="icon" viewBox="0 0 1024 1024" version="1.1" xmlns="http://www.w3.org/2000/svg" p-id="8151" xmlns:xlink="http://www.w3.org/1999/xlink" width="64" height="64"><path d="M208.32 682.432a12.544 12.544 0 0 0-3.648 8l-8.384 125.12 124.096-9.408a12.608 12.608 0 0 0 7.936-3.648l379.968-379.072-120.192-119.872-379.776 378.88z m537.792-314.112l53.44-54.784a11.904 11.904 0 0 0 0-16.64l-93.376-95.808a11.328 11.328 0 0 0-16.256 0l-53.376 54.784 109.568 112.448z m-259.968 485.312h389.184c11.392 0 20.672 13.312 20.672 29.76 0 16.384-9.28 29.76-20.672 29.76h-389.12c-11.456 0-20.672-13.376-20.672-29.76 0-16.448 9.216-29.76 20.608-29.76z m-329.728-186.944l508.928-522.112a54.144 54.144 0 0 1 77.952 0l112 114.88a57.6 57.6 0 0 1 0 80l-509.12 522.24a54.528 54.528 0 0 1-34.816 16.448L128 892.48l12.416-189.632a57.216 57.216 0 0 1 16-36.16z" fill="#141414" p-id="8152"></path></svg>