<?xml version="1.0" standalone="no"?><!DOCTYPE svg PUBLIC "-//W3C//DTD SVG 1.1//EN" "http://www.w3.org/Graphics/SVG/1.1/DTD/svg11.dtd"><svg t="1751593011683" class="icon" viewBox="0 0 1024 1024" version="1.1" xmlns="http://www.w3.org/2000/svg" p-id="16064" xmlns:xlink="http://www.w3.org/1999/xlink" width="256" height="256"><path d="M377.6 960c-16 0-28.8-12.8-28.8-32V169.6l-230.4 236.8c-12.8 12.8-32 12.8-41.6 0-12.8-12.8-12.8-32 0-44.8l281.6-288c9.6-9.6 22.4-12.8 32-6.4 12.8 3.2 19.2 16 19.2 28.8v832c-3.2 19.2-16 32-32 32z m268.8 0c-3.2 0-6.4 0-12.8-3.2-12.8-3.2-19.2-16-19.2-28.8V96c0-16 12.8-32 28.8-32s28.8 12.8 28.8 32v761.6l230.4-236.8c12.8-12.8 32-12.8 41.6 0 12.8 12.8 12.8 32 0 44.8l-281.6 288c0 3.2-6.4 6.4-16 6.4z" fill="#ffffff" p-id="16065"></path></svg>