<?xml version="1.0" standalone="no"?><!DOCTYPE svg PUBLIC "-//W3C//DTD SVG 1.1//EN" "http://www.w3.org/Graphics/SVG/1.1/DTD/svg11.dtd"><svg t="1751592309510" class="icon" viewBox="0 0 1024 1024" version="1.1" xmlns="http://www.w3.org/2000/svg" p-id="3979" xmlns:xlink="http://www.w3.org/1999/xlink" width="256" height="256"><path d="M920.661333 681.514667H857.173333l-0.213333 17.493333c-5.717333 130.56-95.829333 233.045333-224.426667 239.530667l-12.970666 0.341333h-1.536a36.437333 36.437333 0 0 1 0-72.96h1.536c83.328 0 160.725333-80.170667 160.725333-166.741333l-0.042667-17.706667-62.805333 0.042667a8.533333 8.533333 0 0 1-6.613333-13.909334l101.290666-124.458666a8.533333 8.533333 0 0 1 13.226667 0l101.888 124.416a8.533333 8.533333 0 0 1-6.613333 13.952zM103.338667 342.698667H166.826667l0.213333-17.493334c5.717333-130.56 95.829333-233.088 224.426667-239.530666L404.394667 85.333333h1.536a36.437333 36.437333 0 0 1 0 72.917334h-1.536c-83.328 0-160.725333 80.213333-160.725334 166.784l0.042667 17.664h62.805333a8.533333 8.533333 0 0 1 6.613334 13.909333l-101.290667 124.458667a8.533333 8.533333 0 0 1-13.226667 0L96.725333 356.608a8.533333 8.533333 0 0 1 6.613334-13.909333zM426.666667 554.666667a42.666667 42.666667 0 0 1 42.666666 42.666666v298.666667a42.666667 42.666667 0 0 1-42.666666 42.666667H128a42.666667 42.666667 0 0 1-42.666667-42.666667v-298.666667a42.666667 42.666667 0 0 1 42.666667-42.666666h298.666667z m-42.666667 85.333333H170.666667v213.333333h213.333333v-213.333333zM896 85.333333a42.666667 42.666667 0 0 1 42.666667 42.666667v298.666667a42.666667 42.666667 0 0 1-42.666667 42.666666h-298.666667a42.666667 42.666667 0 0 1-42.666666-42.666666V128a42.666667 42.666667 0 0 1 42.666666-42.666667h298.666667z m-42.666667 85.333334h-213.333333v213.333333h213.333333V170.666667z" p-id="3980" fill="#ffffff"></path></svg>